<svg xmlns="http://www.w3.org/2000/svg" viewBox="0 0 232 232"><defs><style>.cls-1{fill:#fff;}.cls-2{fill:#009d85;}.cls-3{fill:#0075c2;}</style></defs><g id="圖層_2" data-name="圖層 2"><g id="圖層_1-2" data-name="圖層 1"><rect class="cls-1" width="232" height="232" rx="35.09"/><path class="cls-2" d="M85.2,77.82h37.7v0A6,6,0,0,1,129,83.92a7.08,7.08,0,0,1-2,4.71l-4.21,13.68A18.52,18.52,0,0,0,141,83.92,18.16,18.16,0,0,0,122.9,65.76H72.34V99.1c4.13-.74,8.41-1.28,12.86-2Z"/><path class="cls-2" d="M123.28,129.76l4.15,13.38a6.84,6.84,0,0,1,2,4.74,6.12,6.12,0,0,1-6.05,6.14H85.2V100.24c9.74-1.7,20.45-3.2,31.73-4.42l-.17-.87c-10.91,1.14-21.35,2.47-31.09,4L85.2,99h0q-6.67,1-12.86,2.13c-30.47,5.45-51.42,12.17-53,17.67a2.22,2.22,0,0,0-.07,1c.93,4.9,18.64,7.48,45,7.4v-.49c-5.5-.19-10.42-.53-14.69-1-10.46-1.21-16.85-3.31-17.41-6.29a2.52,2.52,0,0,1,0-1.09c1.29-4.86,16.85-10.75,40.11-15.64V166h50.94a18.13,18.13,0,0,0,0-36.26Z"/><path class="cls-2" d="M115,121.13c1.32-.15,4.32-.64,6.23-.86a7.56,7.56,0,0,0,1.26-4.76,9.26,9.26,0,0,0-15.56-6.81l-.24.24v0a9.17,9.17,0,0,0-2.75,6.53,9.26,9.26,0,0,0,15,7.26c-1.23.15-2.46.28-3.7.41Z"/><path class="cls-3" d="M122.46,115.51a7.56,7.56,0,0,1-1.26,4.76c7.06-1,12.7-2,19.11-3l-1.85-1.8,26.86-26.89,0,0a13.51,13.51,0,1,0-19-19v0L106.9,108.7a9.26,9.26,0,0,1,15.56,6.81Z"/><path class="cls-3" d="M212.69,98.29a.13.13,0,0,0,0-.05C211.8,94,198.44,91.55,177.87,91c-3.23-.09-6.61-.14-10.15-.12v.42c18.93.64,31.25,3.18,32.08,7.38h0c1.16,6.18-23.12,14.38-58,20-6.87,1.12-14.16,2.14-21.74,3,0,0,0,0,0,0l-3.21.34c-.57,0-1.15.13-1.73.19l.16.87c1.24-.13,2.47-.26,3.7-.41a9.21,9.21,0,0,1-5.76,2,9.31,9.31,0,0,1-6.3-2.48v.07l40.53,40.82.07-.08a13.67,13.67,0,1,0,19.32-19.33h0l-24-24C184.34,113.65,213.92,104.89,212.69,98.29Z"/><path class="cls-1" d="M117.7,112.37a1.37,1.37,0,0,0,1.38-1.38,1.4,1.4,0,1,0-1.38,1.38Z"/></g></g></svg>